<?xml version="1.0" encoding="utf-8"?><svg viewBox="0 0 80 56" xmlns="http://www.w3.org/2000/svg" xmlns:xlink="http://www.w3.org/1999/xlink"><style>:root>svg{display:none}:root>svg:target{display:block}</style><svg fill="none" viewBox="0 0 50 43" id="about" xmlns="http://www.w3.org/2000/svg"><g clip-path="url(#aa)"><path d="M37.498 0 50 21.369 37.498 42.738H12.502L0 21.368 12.502 0h24.996Z" fill="#1C1C1C"/><mask id="ab" style="mask-type:luminance" maskUnits="userSpaceOnUse" x="12" y="8" width="24" height="27"><path d="M36 8H12v26.822h24V8Z" fill="#fff"/></mask><g mask="url(#ab)"><path d="M36 8H12v26.822h24V8Z" fill="#1C1C1C"/><path fill-rule="evenodd" clip-rule="evenodd" d="M17.675 12.392c3.222-3.98 6.935-6.138 9.723-2.604 3.357.176 4.704 5.511 2.025 7.757l-.015.133c.1-.031.205-.051.31-.058a.96.96 0 0 1 .548.102.776.776 0 0 1 .382.463 1.4 1.4 0 0 1-.018.797c-.124.388-.279.823-.425 1.205a.852.852 0 0 1-.26.419.777.777 0 0 1-.567.137l-.116-.013c-.029 1.325-.675 1.934-1.528 2.73l-.04.038c.789 1.964 2.312 2.464 3.827 2.717 5.158.874 4.44 3.617 4.44 6.26h-6.776a5.631 5.631 0 0 1-8.554.7l-.048-.053a5.473 5.473 0 0 1-.541-.655H12c0-3.333-.314-5.477 5.259-6.08 1.706-.182 3.411-.639 4.118-2.99-.772-.67-1.405-1.279-1.527-2.663h-.073a.997.997 0 0 1-.489-.128 1.327 1.327 0 0 1-.537-.655 2.92 2.92 0 0 1-.218-.98v-.494c0-.19.013-.327.026-.419a.234.234 0 0 1 .022-.078c.173-.485.437-.642.79-.631l-.23-.153c-.127-1.567.241-4.287-1.461-4.802l-.005-.002Zm6.601 14.38a.845.845 0 0 1 .256-.615.935.935 0 0 1 .279-.19.874.874 0 0 1 .655 0 .874.874 0 0 1 .46.471c.043.106.063.22.06.334a.872.872 0 0 1-.062.332.896.896 0 0 1-.462.474.81.81 0 0 1-.326.065.834.834 0 0 1-.609-.255.86.86 0 0 1-.25-.616Zm.487 4.495-.03.12c-.016.1 0 .218.122.218a.28.28 0 0 0 .155-.068c.08-.065.153-.138.218-.218a4.08 4.08 0 0 0 .273-.351c.096-.136.194-.289.297-.461a.04.04 0 0 1 .052-.013l.351.26a.04.04 0 0 1 0 .052c-.145.255-.307.499-.486.731a3.282 3.282 0 0 1-.505.52c-.465.377-1.325.633-1.83.18-.413-.37-.252-.973-.112-1.429l.456-1.31c.076-.27.262-.77-.218-.77h-.472a.041.041 0 0 1-.04-.04l.138-.48a.037.037 0 0 1 .037-.028l2.517-.079a.04.04 0 0 1 .038.023.04.04 0 0 1 .004.015v.013l-.959 3.119-.006-.005Zm-.15-6.83a4.754 4.754 0 1 1-3.362 1.395 4.75 4.75 0 0 1 3.361-1.391v-.005Z" fill="#fff"/></g></g><defs><clipPath id="aa"><path fill="#fff" d="M0 0h50v43H0z"/></clipPath></defs></svg><svg fill="none" viewBox="0 0 80 56" id="check" xmlns="http://www.w3.org/2000/svg"><g clip-path="url(#ba)"><path d="M28 56a3.999 3.999 0 0 1-2.828-1.171l-24-24.001a4 4 0 1 1 5.656-5.656L28 46.344 73.172 1.172a4 4 0 1 1 5.656 5.657l-48 48A3.999 3.999 0 0 1 28 56Z" fill="#1C1C1C"/></g><defs><clipPath id="ba"><path fill="#fff" d="M0 0h80v56H0z"/></clipPath></defs></svg><svg fill="none" viewBox="0 0 50 43" id="ed" xmlns="http://www.w3.org/2000/svg"><g clip-path="url(#ca)"><path d="M37.498 0 50 21.369 37.498 42.738H12.502L0 21.368 12.502 0h24.996Z" fill="#1C1C1C"/><path d="M34.244 22.513s-3.833-3.908-9.115-3.908c-5.161 0-10.263 3.908-10.263 3.908l-2.865-1.196v3.509c.451.154.782.57.782 1.072 0 .509-.337.925-.796 1.076l.848 2.363h-2.501l.854-2.384a1.144 1.144 0 0 1-.02-2.095v-3.89L7 19.232 25.337 11l16.825 8.334-7.918 3.179Zm-9.324-1.928c5.314 0 7.918 2.813 7.918 2.813v5.834s-2.709 2.188-8.334 2.188c-5.626 0-7.502-2.188-7.502-2.188v-5.834s2.604-2.813 7.918-2.813Zm-.104 9.585c3.682 0 6.668-.747 6.668-1.667s-2.986-1.667-6.668-1.667c-3.683 0-6.668.747-6.668 1.667s2.985 1.667 6.668 1.667Z" fill="#fff"/></g><defs><clipPath id="ca"><path fill="#fff" d="M0 0h50v43H0z"/></clipPath></defs></svg><svg fill="none" viewBox="0 0 52 45" id="git" xmlns="http://www.w3.org/2000/svg"><g clip-path="url(#da)"><path d="M38.498 1 51 22.369 38.498 43.738H13.502L1 22.368 13.502 1h24.996Z" stroke="#fff" stroke-width="2" stroke-miterlimit="10" stroke-linecap="round" stroke-linejoin="round"/><path d="M21.77 29.585c0 .106-.122.19-.275.19-.174.016-.296-.069-.296-.19 0-.106.122-.19.275-.19.159-.016.296.068.296.19Zm-1.644-.238c-.037.106.069.227.227.259.138.053.296 0 .328-.106.032-.105-.069-.227-.227-.275-.138-.037-.291.016-.328.122Zm2.336-.09c-.153.037-.259.137-.243.26.016.105.153.174.312.137.153-.038.26-.138.243-.244-.015-.1-.158-.169-.312-.153ZM25.941 9C18.609 9 13 14.566 13 21.899c0 5.862 3.69 10.879 8.96 12.644.677.122.915-.296.915-.64 0-.327-.016-2.135-.016-3.245 0 0-3.7.793-4.478-1.575 0 0-.602-1.539-1.47-1.935 0 0-1.21-.83.085-.814 0 0 1.317.105 2.041 1.364 1.158 2.04 3.098 1.453 3.854 1.104.121-.845.465-1.432.845-1.781-2.955-.328-5.936-.756-5.936-5.841 0-1.454.402-2.184 1.247-3.114-.137-.344-.586-1.76.138-3.59 1.105-.343 3.647 1.428 3.647 1.428a12.418 12.418 0 0 1 3.32-.45c1.126 0 2.263.154 3.32.45 0 0 2.543-1.776 3.648-1.427.724 1.834.275 3.245.137 3.589.846.936 1.364 1.665 1.364 3.114 0 5.1-3.114 5.508-6.069 5.84.487.419.899 1.212.899 2.454 0 1.781-.016 3.986-.016 4.42 0 .343.243.76.915.639 5.286-1.755 8.87-6.772 8.87-12.634C39.22 14.566 33.273 9 25.94 9Zm-7.803 18.232c-.069.053-.053.175.037.275.085.085.206.122.275.053.069-.053.053-.174-.037-.275-.084-.084-.206-.121-.275-.053Zm-.57-.428c-.038.069.015.154.121.206.084.053.19.037.227-.037.037-.068-.016-.153-.121-.206-.106-.032-.19-.016-.228.037Zm1.712 1.882c-.084.069-.053.227.069.328.121.122.275.137.343.053.07-.069.037-.228-.068-.328-.117-.122-.275-.137-.344-.053Zm-.603-.777c-.084.053-.084.19 0 .312.085.122.228.174.297.122.084-.07.084-.207 0-.328-.075-.122-.212-.175-.297-.106Z" fill="#fff"/></g><defs><clipPath id="da"><path fill="#fff" d="M0 0h52v45H0z"/></clipPath></defs></svg><svg fill="none" viewBox="0 0 50 43" id="job" xmlns="http://www.w3.org/2000/svg"><path d="M37.498 0 50 21.369 37.498 42.738H12.502L0 21.368 12.502 0h24.996Z" fill="#639"/><path fill-rule="evenodd" clip-rule="evenodd" d="M38 22.411V19.44l-3.603-1.189-.836-2.024 1.635-3.417-2.099-2.099-3.361 1.69-2.025-.835L26.43 8h-2.971l-1.17 3.603-2.062.836-3.417-1.635-2.099 2.099 1.69 3.361-.835 2.025L12 19.55v2.953l3.603 1.189.836 2.024-1.635 3.417 2.099 2.099 3.361-1.69 2.025.836 1.281 3.565h2.953l1.17-3.603 2.061-.835 3.417 1.634 2.099-2.099-1.709-3.361.873-2.024L38 22.374v.037Zm-13 4.142a5.564 5.564 0 0 1-5.571-5.572A5.564 5.564 0 0 1 25 15.41a5.564 5.564 0 0 1 5.571 5.571A5.564 5.564 0 0 1 25 26.553Z" fill="#fff"/></svg><svg fill="none" viewBox="0 0 50 43" id="link" xmlns="http://www.w3.org/2000/svg"><g clip-path="url(#fa)"><path d="M37.498 0 50 21.369 37.498 42.738H12.502L0 21.368 12.502 0h24.996Z" fill="#1C1C1C"/><path d="m25.766 26.435.744-4.861c-2.185.217-4.611.757-6.659 2.202-2.29 1.618-4.143 4.402-4.716 9.207a.65.65 0 0 1-1.277.083c-.522-1.565-.79-3.044-.846-4.432-.157-3.812 1.266-6.923 3.369-9.294 2.08-2.348 4.831-3.966 7.359-4.816.969-.326 1.91-.54 2.773-.641l-.741-4.12a.649.649 0 0 1 1.052-.614l9.94 8.223c.277.229.316.64.087.916l-.074.076-9.94 8.659a.652.652 0 0 1-1.071-.588Z" fill="#fff"/></g><defs><clipPath id="fa"><path fill="#fff" d="M0 0h50v43H0z"/></clipPath></defs></svg><svg fill="none" viewBox="0 0 52 45" id="mail" xmlns="http://www.w3.org/2000/svg"><path d="M38.498 1 51 22.369 38.498 43.738H13.502L1 22.368 13.502 1h24.996Z" stroke="#fff" stroke-width="2" stroke-miterlimit="10" stroke-linecap="round" stroke-linejoin="round"/><path d="M23.948 22.707a7.531 7.531 0 0 0 .073 1.964c.061.44.258.851.562 1.175a1.416 1.416 0 0 0 1.025.388c.236-.012.466-.077.673-.188.328-.192.602-.464.798-.79.215-.337.38-.703.493-1.087l.536-6.235a3.544 3.544 0 0 0-.724-.075 2.787 2.787 0 0 0-1.819.577 3.62 3.62 0 0 0-1.072 1.644c-.28.857-.463 1.741-.547 2.638l.002-.01Zm4.11 4.702a4.614 4.614 0 0 1-.743.77 4.477 4.477 0 0 1-2.912.978 3.806 3.806 0 0 1-2.395-.794 4.674 4.674 0 0 1-1.518-2.249 8.21 8.21 0 0 1-.311-3.407 11.612 11.612 0 0 1 1.25-4.132 7.427 7.427 0 0 1 2.4-2.712 5.764 5.764 0 0 1 3.25-.965c1.144 0 2.037.16 2.68.48.642.322 1.266.68 1.868 1.072l-.716 8.418c-.05.266-.05.539 0 .805.042.19.136.366.272.508.122.126.275.22.444.27a1.771 1.771 0 0 0 1.93-.624c.455-.565.79-1.217.982-1.917a10.12 10.12 0 0 0 .429-2.727c.091-1.879-.146-3.537-.712-4.975a6.905 6.905 0 0 0-2.73-3.366c-1.25-.814-2.862-1.22-4.84-1.218-1.902 0-3.534.483-4.895 1.451a9.65 9.65 0 0 0-3.192 3.913 14.794 14.794 0 0 0-1.287 5.507 14.21 14.21 0 0 0 .405 4.402 7.602 7.602 0 0 0 1.609 3.081 6.647 6.647 0 0 0 2.727 1.814 10.9 10.9 0 0 0 3.74.596 12.62 12.62 0 0 0 2.515-.261c.742-.14 1.47-.344 2.176-.612l.553 2.574a7.348 7.348 0 0 1-2.487.952c-.925.2-1.869.305-2.815.31-2.56 0-4.733-.473-6.519-1.421a9.126 9.126 0 0 1-4.02-4.288c-.89-1.903-1.284-4.285-1.18-7.147a17.04 17.04 0 0 1 1.055-5.36 13.382 13.382 0 0 1 2.588-4.29 11.494 11.494 0 0 1 3.952-2.832 12.607 12.607 0 0 1 5.13-1.012c2.486 0 4.584.508 6.292 1.525a9.496 9.496 0 0 1 3.839 4.228c.84 1.804 1.211 3.888 1.112 6.25a13.605 13.605 0 0 1-.45 3.007 8.896 8.896 0 0 1-1.166 2.641 5.98 5.98 0 0 1-1.98 1.872 5.72 5.72 0 0 1-2.883.697 3.98 3.98 0 0 1-2.95-1.181 3.469 3.469 0 0 1-.496-.643v.012Z" fill="#fff"/></svg><svg fill="none" viewBox="0 0 52 45" id="phone" xmlns="http://www.w3.org/2000/svg"><path d="M38.498 1 51 22.369 38.498 43.738H13.502L1 22.368 13.502 1h24.996Z" stroke="#fff" stroke-width="2" stroke-miterlimit="10" stroke-linecap="round" stroke-linejoin="round"/><path d="m37.316 26.96-5.25-2.25a1.126 1.126 0 0 0-1.313.323l-2.325 2.84a17.374 17.374 0 0 1-8.306-8.306l2.84-2.325a1.121 1.121 0 0 0 .324-1.312l-2.25-5.25a1.133 1.133 0 0 0-1.289-.652l-4.875 1.125A1.125 1.125 0 0 0 14 12.25C14 24.273 23.745 34 35.75 34a1.125 1.125 0 0 0 1.097-.872l1.125-4.875a1.139 1.139 0 0 0-.656-1.294Z" fill="#fff"/></svg><svg fill="none" viewBox="0 0 50 43" id="skills" xmlns="http://www.w3.org/2000/svg"><g clip-path="url(#ia)"><path d="M37.498 0 50 21.369 37.498 42.738H12.502L0 21.368 12.502 0h24.996Z" fill="#1C1C1C"/><mask id="ib" style="mask-type:luminance" maskUnits="userSpaceOnUse" x="8" y="8" width="34" height="26"><path d="M42 8H8v25.005h34V8Z" fill="#fff"/></mask><g mask="url(#ib)"><path d="M42 8H8v25.005h34V8Z" fill="#1C1C1C"/><path d="M15.125 27.1a.838.838 0 1 1-1.677 0c0-3.19 1.292-6.079 3.384-8.17a11.518 11.518 0 0 1 8.17-3.385c3.191 0 6.08 1.293 8.171 3.384a11.518 11.518 0 0 1 3.384 8.171.838.838 0 1 1-1.676 0 9.843 9.843 0 0 0-2.892-6.984 9.843 9.843 0 0 0-6.983-2.891 9.854 9.854 0 0 0-6.984 2.891 9.829 9.829 0 0 0-2.897 6.984Zm17.174 5.905c-.044-1.323.03-1.342-1.516-1.92-.908-.34-2.067-.773-2.9-1.29-.98.908-1.607 1.945-1.63 3.21H32.3Zm-14.598 0c.044-1.323-.03-1.342 1.516-1.92.908-.34 2.067-.773 2.9-1.29.98.908 1.607 1.945 1.63 3.21H17.7Zm5.329-4.458c.041-.335-.95-1.605-1.129-2.216-.387-.614-.526-1.594-.102-2.244.168-.257.096-.72.096-1.074 0-3.539 6.201-3.541 6.201 0 0 .449-.102.789.141 1.14.407.59.197 1.633-.146 2.18-.219.64-1.257 1.852-1.185 2.217.061 1.815-3.89 1.754-3.876-.003ZM42 17.762l-1.422 1.837 1.01 2.092-2.186-.786-1.677 1.607.072-2.32-2.047-1.1 2.23-.65.412-2.288 1.306 1.92L42 17.762Zm-7.222-7.225-.312 2.302 1.92 1.31-2.286.414-.65 2.23-1.098-2.047-2.322.072 1.608-1.677-.789-2.189 2.092 1.01 1.837-1.425ZM8 17.762l2.302.312 1.309-1.92.415 2.286 2.23.65-2.047 1.098.071 2.322-1.68-1.608-2.188.786 1.01-2.092L8 17.762Zm7.222-7.225 1.837 1.422 2.092-1.01-.783 2.186 1.607 1.677-2.321-.072-1.099 2.048-.65-2.23-2.288-.413 1.92-1.308-.315-2.3ZM25 8l.88 2.15 2.316.171-1.771 1.503.553 2.258-1.975-1.223-1.976 1.223.554-2.258-1.777-1.502 2.316-.172L25 8Z" fill="#fff"/></g></g><defs><clipPath id="ia"><path fill="#fff" d="M0 0h50v43H0z"/></clipPath></defs></svg><svg fill="none" viewBox="0 0 52 45" id="telega" xmlns="http://www.w3.org/2000/svg"><path d="M38.498 1 51 22.369 38.498 43.738H13.502L1 22.368 13.502 1h24.996Z" stroke="#fff" stroke-width="2" stroke-miterlimit="10" stroke-linecap="round" stroke-linejoin="round"/><path d="m22.202 25.28-.43 6.05c.615 0 .882-.265 1.202-.582l2.884-2.757 5.979 4.378c1.096.61 1.868.289 2.164-1.009l3.924-18.387h.001c.348-1.622-.586-2.255-1.654-1.858l-23.065 8.83c-1.574.612-1.55 1.49-.268 1.887l5.897 1.834 13.697-8.57c.645-.427 1.23-.191.749.236l-11.08 9.948Z" fill="#fff"/></svg><svg fill="none" viewBox="0 0 50 43" id="works" xmlns="http://www.w3.org/2000/svg"><g clip-path="url(#ka)"><path d="M37.498 0 50 21.369 37.498 42.738H12.502L0 21.368 12.502 0h24.996Z" fill="#1C1C1C"/><path d="M40 6H10v30h30V6Z" fill="#1C1C1C"/><path fill-rule="evenodd" clip-rule="evenodd" d="M33.75 14.75h-17.5c-.69 0-1.25.56-1.25 1.25v11.25c0 .69.56 1.25 1.25 1.25h17.5c.69 0 1.25-.56 1.25-1.25V16c0-.69-.56-1.25-1.25-1.25Zm-17.5-1.25a2.5 2.5 0 0 0-2.5 2.5v11.25a2.5 2.5 0 0 0 2.5 2.5h17.5a2.5 2.5 0 0 0 2.5-2.5V16a2.5 2.5 0 0 0-2.5-2.5h-17.5Z" fill="#fff"/><path fill-rule="evenodd" clip-rule="evenodd" d="M33.75 14.75h-17.5c-.69 0-1.25.56-1.25 1.25v1.789c0 .62.447 1.124 1.032 1.202 2.377.317 6.202.759 8.968.759s6.591-.442 8.968-.759A1.199 1.199 0 0 0 35 17.789V16c0-.69-.56-1.25-1.25-1.25Zm-17.5-1.25a2.5 2.5 0 0 0-2.5 2.5v1.789c0 1.232.896 2.278 2.117 2.441 2.377.317 6.276.77 9.133.77 2.857 0 6.756-.453 9.133-.77a2.449 2.449 0 0 0 2.117-2.441V16a2.5 2.5 0 0 0-2.5-2.5h-17.5ZM22.5 11.625c-1.035 0-1.875.84-1.875 1.875h-1.25c0-1.726 1.4-3.125 3.125-3.125h5c1.726 0 3.125 1.4 3.125 3.125h-1.25c0-1.036-.84-1.875-1.875-1.875h-5Z" fill="#fff"/></g><defs><clipPath id="ka"><path fill="#fff" d="M0 0h50v43H0z"/></clipPath></defs></svg></svg>