<svg width="50" height="43" viewBox="0 0 50 43" fill="none" xmlns="http://www.w3.org/2000/svg">
<path d="M37.4983 0L50 21.3688L37.4983 42.7376H12.5017L0 21.3688L12.5017 0H37.4983Z" fill="#663399"/>
<g clip-path="url(#clip0_29_102)">
<rect width="24" height="26.8224" transform="translate(12 8)" fill="#663399"/>
<path fill-rule="evenodd" clip-rule="evenodd" d="M17.6753 12.3918C20.8971 8.41258 24.6101 6.25378 27.3975 9.78775C30.7547 9.96455 32.1015 15.2993 29.4232 17.5455L29.4079 17.6786C29.5085 17.6468 29.6126 17.627 29.7179 17.6197C29.9066 17.599 30.0973 17.6347 30.2658 17.7223C30.3569 17.7702 30.4376 17.8358 30.5032 17.9153C30.5688 17.9947 30.6179 18.0864 30.6477 18.185C30.7192 18.4467 30.7131 18.7235 30.6303 18.9817C30.5059 19.3703 30.3509 19.8047 30.2046 20.1867C30.1613 20.3489 30.0709 20.4947 29.9449 20.6058C29.7808 20.7236 29.5772 20.773 29.3774 20.7433L29.2617 20.7302C29.2333 22.0551 28.5872 22.6641 27.7337 23.4609L27.6944 23.498C28.4824 25.4625 30.006 25.9624 31.5209 26.2156C36.6789 27.0887 35.9607 29.8325 35.9607 32.4759H29.1853C28.709 33.139 28.0942 33.6906 27.3835 34.0925C26.6729 34.4944 25.8833 34.737 25.0696 34.8034C24.2559 34.8699 23.4374 34.7586 22.671 34.4773C21.9045 34.196 21.2084 33.7514 20.6308 33.1744L20.5828 33.122C20.3857 32.9181 20.2047 32.6991 20.0415 32.4671H12C12 29.134 11.6857 26.9905 17.2584 26.388C18.9653 26.2047 20.6701 25.7485 21.3773 23.3976C20.6046 22.7274 19.9716 22.1184 19.8494 20.7345H19.7773C19.606 20.7343 19.4376 20.69 19.2884 20.6058C19.0427 20.452 18.8541 20.222 18.7514 19.9509C18.6226 19.6393 18.5487 19.3077 18.5331 18.9708V18.9708C18.5331 18.8661 18.5331 18.6674 18.5331 18.4775C18.5331 18.2876 18.5462 18.1501 18.5593 18.0584C18.562 18.0311 18.5693 18.0045 18.5812 17.9798C18.7536 17.4953 19.0177 17.3381 19.3713 17.349L19.14 17.1962C19.0134 15.6289 19.3823 12.9092 17.6797 12.394L17.6753 12.3918ZM24.2761 26.7722C24.2751 26.6576 24.2973 26.544 24.3416 26.4382C24.3846 26.3322 24.4493 26.2363 24.5315 26.1566C24.6123 26.0769 24.707 26.0125 24.8109 25.9667C25.0209 25.8818 25.2557 25.8818 25.4658 25.9667C25.568 26.0132 25.6611 26.0775 25.7408 26.1566C25.8203 26.2376 25.8834 26.3332 25.9263 26.4382C25.9686 26.5444 25.9886 26.658 25.9853 26.7722C25.9867 26.8857 25.9659 26.9984 25.9241 27.104C25.88 27.2089 25.8163 27.3045 25.7364 27.3856C25.6578 27.4666 25.5645 27.5318 25.4614 27.5777C25.3587 27.6217 25.2479 27.644 25.1361 27.6431C25.0226 27.6442 24.9101 27.622 24.8054 27.5781C24.7007 27.5342 24.606 27.4694 24.5271 27.3877C24.4465 27.3072 24.3827 27.2115 24.3394 27.1062C24.2966 27.0001 24.2751 26.8866 24.2761 26.7722V26.7722ZM24.7629 31.2666L24.7323 31.3867C24.717 31.4871 24.7323 31.6049 24.8546 31.6049C24.912 31.5989 24.9661 31.5753 25.0095 31.5373C25.0898 31.4725 25.163 31.3993 25.2278 31.319C25.3251 31.2069 25.4162 31.0896 25.5007 30.9676C25.5967 30.8322 25.6949 30.6794 25.7975 30.507C25.8029 30.4985 25.8114 30.4924 25.8211 30.49C25.8309 30.4876 25.8412 30.489 25.8499 30.4939L26.2014 30.7536C26.2078 30.7608 26.2114 30.7702 26.2114 30.7798C26.2114 30.7895 26.2078 30.7988 26.2014 30.806C26.0562 31.0608 25.8936 31.3051 25.7146 31.5373C25.5662 31.7285 25.3971 31.9028 25.2104 32.0568V32.0568C24.7454 32.4344 23.8854 32.6898 23.379 32.238C22.9664 31.8669 23.128 31.2644 23.2677 30.8082L23.7239 29.4985C23.8003 29.2279 23.9858 28.728 23.5056 28.728H23.0341C23.0239 28.7275 23.0142 28.7232 23.0069 28.7159C22.9996 28.7086 22.9953 28.699 22.9948 28.6887L23.1323 28.2085C23.1343 28.2002 23.1391 28.1929 23.1459 28.1877C23.1526 28.1826 23.1609 28.1799 23.1694 28.1801L25.6862 28.1015C25.6914 28.1012 25.6965 28.102 25.7014 28.1037C25.7063 28.1054 25.7108 28.108 25.7147 28.1115C25.7185 28.1149 25.7216 28.1191 25.7239 28.1238C25.7261 28.1284 25.7274 28.1335 25.7277 28.1386V28.1517L24.7694 31.271L24.7629 31.2666ZM24.6123 24.4366C25.5525 24.4366 26.4715 24.7154 27.2533 25.2377C28.0351 25.76 28.6444 26.5023 29.0043 27.3709C29.3642 28.2395 29.4585 29.1953 29.2752 30.1174C29.092 31.0396 28.6394 31.8867 27.9747 32.5517C27.3101 33.2166 26.4632 33.6696 25.5411 33.8533C24.619 34.037 23.6632 33.9431 22.7944 33.5836C21.9257 33.2242 21.1831 32.6151 20.6604 31.8336C20.1377 31.0521 19.8585 30.1331 19.8581 29.1929C19.8581 28.5687 19.9811 27.9506 20.22 27.3739C20.459 26.7972 20.8092 26.2733 21.2507 25.832C21.6922 25.3907 22.2163 25.0407 22.7931 24.8021C23.3699 24.5634 23.9881 24.4407 24.6123 24.441V24.4366Z" fill="white"/>
</g>
<defs>
<clipPath id="clip0_29_102">
<rect width="24" height="26.8224" fill="white" transform="translate(12 8)"/>
</clipPath>
</defs>
</svg>
