<svg width="50" height="43" viewBox="0 0 50 43" fill="none" xmlns="http://www.w3.org/2000/svg">
<g clip-path="url(#clip0_213_26)">
<path d="M37.4983 0L50 21.3688L37.4983 42.7376H12.5017L0 21.3688L12.5017 0H37.4983Z" fill="#1C1C1C"/>
<mask id="mask0_213_26" style="mask-type:luminance" maskUnits="userSpaceOnUse" x="12" y="8" width="24" height="27">
<path d="M36 8H12V34.8224H36V8Z" fill="white"/>
</mask>
<g mask="url(#mask0_213_26)">
<path d="M36 8H12V34.8224H36V8Z" fill="#1C1C1C"/>
<path fill-rule="evenodd" clip-rule="evenodd" d="M17.6754 12.3917C20.8972 8.41246 24.6102 6.25366 27.3976 9.78763C30.7548 9.96443 32.1016 15.2992 29.4233 17.5454L29.408 17.6785C29.5086 17.6467 29.6127 17.6269 29.718 17.6196C29.9067 17.5989 30.0974 17.6346 30.2659 17.7222C30.357 17.7701 30.4377 17.8357 30.5033 17.9152C30.5689 17.9946 30.618 18.0863 30.6478 18.1849C30.7193 18.4466 30.7132 18.7234 30.6304 18.9816C30.506 19.3702 30.351 19.8046 30.2047 20.1866C30.1614 20.3488 30.071 20.4946 29.945 20.6057C29.7809 20.7235 29.5773 20.7729 29.3775 20.7432L29.2618 20.7301C29.2334 22.055 28.5873 22.664 27.7338 23.4608L27.6945 23.4979C28.4825 25.4624 30.0061 25.9623 31.521 26.2155C36.679 27.0886 35.9608 29.8324 35.9608 32.4758H29.1854C28.7091 33.1389 28.0943 33.6905 27.3836 34.0924C26.673 34.4943 25.8834 34.7369 25.0697 34.8033C24.256 34.8698 23.4375 34.7585 22.6711 34.4772C21.9046 34.1959 21.2085 33.7513 20.6309 33.1743L20.5829 33.1219C20.3858 32.918 20.2048 32.699 20.0416 32.467H12.0001C12.0001 29.1339 11.6858 26.9904 17.2585 26.3879C18.9654 26.2046 20.6702 25.7484 21.3774 23.3975C20.6047 22.7273 19.9717 22.1183 19.8495 20.7344H19.7774C19.6061 20.7342 19.4377 20.6899 19.2885 20.6057C19.0428 20.4519 18.8542 20.2219 18.7515 19.9508C18.6227 19.6392 18.5488 19.3076 18.5332 18.9707C18.5332 18.866 18.5332 18.6673 18.5332 18.4774C18.5332 18.2875 18.5463 18.15 18.5594 18.0583C18.5621 18.031 18.5694 18.0044 18.5813 17.9797C18.7537 17.4952 19.0178 17.338 19.3714 17.3489L19.1401 17.1961C19.0135 15.6288 19.3824 12.9091 17.6798 12.3939L17.6754 12.3917ZM24.2762 26.7721C24.2752 26.6575 24.2974 26.5439 24.3417 26.4381C24.3847 26.3321 24.4494 26.2362 24.5316 26.1565C24.6124 26.0768 24.7071 26.0124 24.811 25.9666C25.021 25.8817 25.2558 25.8817 25.4659 25.9666C25.5681 26.0131 25.6612 26.0774 25.7409 26.1565C25.8204 26.2375 25.8835 26.3331 25.9264 26.4381C25.9687 26.5443 25.9887 26.6579 25.9854 26.7721C25.9868 26.8856 25.966 26.9983 25.9242 27.1039C25.8801 27.2088 25.8164 27.3044 25.7365 27.3855C25.6579 27.4665 25.5646 27.5317 25.4615 27.5776C25.3588 27.6216 25.248 27.6439 25.1362 27.643C25.0227 27.6441 24.9102 27.6219 24.8055 27.578C24.7008 27.5341 24.6061 27.4693 24.5272 27.3876C24.4466 27.3071 24.3828 27.2114 24.3395 27.1061C24.2967 27 24.2752 26.8865 24.2762 26.7721ZM24.763 31.2665L24.7324 31.3866C24.7171 31.487 24.7324 31.6048 24.8547 31.6048C24.9121 31.5988 24.9662 31.5752 25.0096 31.5372C25.0899 31.4724 25.1631 31.3992 25.2279 31.3189C25.3252 31.2068 25.4163 31.0895 25.5008 30.9675C25.5968 30.8321 25.695 30.6793 25.7976 30.5069C25.803 30.4984 25.8115 30.4923 25.8212 30.4899C25.831 30.4875 25.8413 30.4889 25.85 30.4938L26.2015 30.7535C26.2079 30.7607 26.2115 30.7701 26.2115 30.7797C26.2115 30.7894 26.2079 30.7987 26.2015 30.8059C26.0563 31.0607 25.8937 31.305 25.7147 31.5372C25.5663 31.7284 25.3972 31.9027 25.2105 32.0567C24.7455 32.4343 23.8855 32.6897 23.3791 32.2379C22.9665 31.8668 23.1281 31.2643 23.2678 30.8081L23.724 29.4984C23.8004 29.2278 23.9859 28.7279 23.5057 28.7279H23.0342C23.024 28.7274 23.0143 28.7231 23.007 28.7158C22.9997 28.7085 22.9954 28.6989 22.9949 28.6886L23.1324 28.2084C23.1344 28.2001 23.1392 28.1928 23.146 28.1876C23.1527 28.1825 23.161 28.1798 23.1695 28.18L25.6863 28.1014C25.6915 28.1011 25.6966 28.1019 25.7015 28.1036C25.7064 28.1053 25.7109 28.1079 25.7148 28.1114C25.7186 28.1148 25.7217 28.119 25.724 28.1237C25.7262 28.1283 25.7275 28.1334 25.7278 28.1385V28.1516L24.7695 31.2709L24.763 31.2665ZM24.6124 24.4365C25.5526 24.4365 26.4716 24.7153 27.2534 25.2376C28.0352 25.7599 28.6445 26.5022 29.0044 27.3708C29.3643 28.2394 29.4586 29.1952 29.2753 30.1173C29.0921 31.0395 28.6395 31.8866 27.9748 32.5516C27.3102 33.2165 26.4633 33.6695 25.5412 33.8532C24.6191 34.0369 23.6633 33.943 22.7945 33.5835C21.9258 33.2241 21.1832 32.615 20.6605 31.8335C20.1378 31.052 19.8586 30.133 19.8582 29.1928C19.8582 28.5686 19.9812 27.9505 20.2201 27.3738C20.4591 26.7971 20.8093 26.2732 21.2508 25.8319C21.6923 25.3906 22.2164 25.0406 22.7932 24.802C23.37 24.5633 23.9882 24.4406 24.6124 24.4409V24.4365Z" fill="white"/>
</g>
</g>
<defs>
<clipPath id="clip0_213_26">
<rect width="50" height="43" fill="white"/>
</clipPath>
</defs>
</svg>
