<svg width="50" height="43" viewBox="0 0 50 43" fill="none" xmlns="http://www.w3.org/2000/svg">
<path d="M37.4983 0L50 21.3688L37.4983 42.7376H12.5017L0 21.3688L12.5017 0H37.4983Z" fill="#663399"/>
<path d="M34.2436 22.513C34.2436 22.513 30.4107 18.6049 25.1288 18.6049C19.9678 18.6049 14.8662 22.513 14.8662 22.513L12.0007 21.3168V24.8259C12.4522 24.9795 12.7828 25.3952 12.7828 25.8985C12.7828 26.4068 12.4456 26.8233 11.9873 26.9736L12.8345 29.3366H10.3338L11.1885 26.9535C10.7778 26.7791 10.4907 26.3734 10.4907 25.8985C10.4907 25.4336 10.7695 25.0379 11.1676 24.8576V20.9688L7 19.2309L25.3374 11L42.1616 19.3344L34.2436 22.513V22.513ZM24.9201 20.5848C30.2338 20.5848 32.838 23.3977 32.838 23.3977V29.2323C32.838 29.2323 30.1294 31.42 24.5036 31.42C18.8777 31.42 17.0022 29.2323 17.0022 29.2323V23.3977C17.0022 23.3977 19.6064 20.5848 24.9201 20.5848ZM24.8157 30.1696C28.4984 30.1696 31.4841 29.4226 31.4841 28.5027C31.4841 27.5829 28.4984 26.8359 24.8157 26.8359C21.1331 26.8359 18.1482 27.5829 18.1482 28.5027C18.1482 29.4226 21.1331 30.1696 24.8157 30.1696Z" fill="white"/>
</svg>
