<svg width="52" height="45" viewBox="0 0 52 45" fill="none" xmlns="http://www.w3.org/2000/svg">
<g clip-path="url(#clip0_18_99)">
<path d="M38.4983 1L51 22.3688L38.4983 43.7376H13.5017L1 22.3688L13.5017 1H38.4983Z" stroke="white" stroke-width="2" stroke-miterlimit="10" stroke-linecap="round" stroke-linejoin="round"/>
<path d="M21.77 29.5848C21.77 29.6906 21.6484 29.7751 21.4951 29.7751C21.3206 29.7909 21.199 29.7064 21.199 29.5848C21.199 29.479 21.3206 29.3945 21.4739 29.3945C21.6325 29.3787 21.77 29.4632 21.77 29.5848ZM20.1259 29.3469C20.089 29.4526 20.1946 29.5742 20.3532 29.6059C20.4906 29.6589 20.6492 29.6059 20.6809 29.5002C20.7127 29.3945 20.6123 29.2729 20.4537 29.2254C20.3162 29.1883 20.1629 29.2412 20.1259 29.3469ZM22.4624 29.2571C22.3091 29.294 22.2034 29.3945 22.2192 29.5161C22.2352 29.6218 22.3725 29.6906 22.5311 29.6535C22.6844 29.6165 22.7902 29.5161 22.7743 29.4104C22.7585 29.3099 22.6157 29.2412 22.4624 29.2571ZM25.9409 9C18.6088 9 13 14.5665 13 21.8986C13 27.761 16.6898 32.7777 21.9603 34.5434C22.6369 34.6649 22.8748 34.2473 22.8748 33.9037C22.8748 33.5759 22.8589 31.768 22.8589 30.6579C22.8589 30.6579 19.1585 31.4508 18.3814 29.0826C18.3814 29.0826 17.7788 27.5443 16.9119 27.1478C16.9119 27.1478 15.7013 26.3179 16.9964 26.3338C16.9964 26.3338 18.3127 26.4394 19.037 27.6976C20.1946 29.7381 22.1347 29.1513 22.8906 28.8024C23.0122 27.9566 23.3558 27.3699 23.7364 27.0209C20.7814 26.6932 17.7999 26.265 17.7999 21.1796C17.7999 19.7259 18.2017 18.9964 19.0475 18.0659C18.9101 17.7223 18.4607 16.3056 19.185 14.4766C20.2898 14.133 22.8324 15.9039 22.8324 15.9039C23.8897 15.6078 25.0263 15.4545 26.1523 15.4545C27.2783 15.4545 28.4148 15.6078 29.4721 15.9039C29.4721 15.9039 32.0148 14.1277 33.1196 14.4766C33.8439 16.3109 33.3945 17.7223 33.2571 18.0659C34.1028 19.0017 34.6209 19.7311 34.6209 21.1796C34.6209 26.2808 31.5073 26.6879 28.5523 27.0209C29.0386 27.4386 29.4509 28.2315 29.4509 29.4738C29.4509 31.2553 29.4351 33.4596 29.4351 33.8931C29.4351 34.2368 29.6782 34.6543 30.3496 34.5327C35.6358 32.7777 39.22 27.761 39.22 21.8986C39.22 14.5665 33.2729 9 25.9409 9ZM18.1383 27.2324C18.0695 27.2853 18.0854 27.4069 18.1753 27.5073C18.2598 27.5919 18.3814 27.6289 18.4502 27.5602C18.5189 27.5073 18.503 27.3857 18.4132 27.2853C18.3286 27.2006 18.207 27.1637 18.1383 27.2324ZM17.5674 26.8042C17.5304 26.8729 17.5832 26.9575 17.689 27.0104C17.7735 27.0632 17.8792 27.0473 17.9162 26.9734C17.9532 26.9046 17.9004 26.8201 17.7946 26.7673C17.689 26.7355 17.6043 26.7513 17.5674 26.8042ZM19.2801 28.6861C19.1956 28.7549 19.2273 28.9135 19.3489 29.0139C19.4704 29.1355 19.6237 29.1513 19.6924 29.0668C19.7611 28.998 19.7294 28.8394 19.6237 28.7389C19.5074 28.6174 19.3489 28.6016 19.2801 28.6861ZM18.6774 27.909C18.5929 27.9619 18.5929 28.0993 18.6774 28.2209C18.7621 28.3425 18.9048 28.3954 18.9735 28.3425C19.0581 28.2738 19.0581 28.1364 18.9735 28.0148C18.8995 27.8932 18.7621 27.8404 18.6774 27.909Z" fill="white"/>
</g>
<defs>
<clipPath id="clip0_18_99">
<rect width="52" height="45" fill="white"/>
</clipPath>
</defs>
</svg>
