<svg width="50" height="43" viewBox="0 0 50 43" fill="none" xmlns="http://www.w3.org/2000/svg">
<path d="M37.4983 0L50 21.3688L37.4983 42.7376H12.5017L0 21.3688L12.5017 0H37.4983Z" fill="#663399"/>
<path fill-rule="evenodd" clip-rule="evenodd" d="M38 22.4114V19.44L34.3971 18.2514L33.5614 16.2271L35.1957 12.81L33.0971 10.7114L29.7357 12.4014L27.7114 11.5657L26.43 8H23.4586L22.2886 11.6029L20.2271 12.4386L16.81 10.8043L14.7114 12.9029L16.4014 16.2643L15.5657 18.2886L12 19.5514V22.5043L15.6029 23.6929L16.4386 25.7171L14.8043 29.1343L16.9029 31.2328L20.2643 29.5428L22.2886 30.3786L23.57 33.9443H26.5229L27.6929 30.3414L29.7543 29.5057L33.1714 31.14L35.27 29.0414L33.5614 25.68L34.4343 23.6557L38 22.3743V22.4114ZM25 26.5529C21.9171 26.5529 19.4286 24.0643 19.4286 20.9814C19.4286 17.8986 21.9171 15.41 25 15.41C28.0829 15.41 30.5714 17.8986 30.5714 20.9814C30.5714 24.0643 28.0829 26.5529 25 26.5529Z" fill="white"/>
</svg>
