<svg width="50" height="43" viewBox="0 0 50 43" fill="none" xmlns="http://www.w3.org/2000/svg">
<path d="M37.4983 0L50 21.3688L37.4983 42.7376H12.5017L0 21.3688L12.5017 0H37.4983Z" fill="#663399"/>
<path d="M25.766 26.4347L26.51 21.5737C24.3246 21.7911 21.8986 22.3307 19.8514 23.7764C17.5608 25.3936 15.708 28.1785 15.1353 32.9829C15.0936 33.3396 14.7696 33.5949 14.4125 33.5527C14.1374 33.52 13.9224 33.3194 13.8581 33.066C13.3358 31.5007 13.068 30.0218 13.0118 28.6336C12.8548 24.8224 14.2785 21.711 16.3805 19.3402C18.4618 16.992 21.2122 15.3735 23.7399 14.5243C24.7086 14.1979 25.6498 13.9834 26.5129 13.883L25.7718 9.76317C25.7084 9.41085 25.9431 9.07292 26.2955 9.01004C26.4908 8.97548 26.6814 9.03212 26.8235 9.14924L36.7644 17.3717C37.0408 17.6007 37.0797 18.0116 36.8508 18.2876L36.7768 18.3639L26.8379 27.0227C26.5671 27.2589 26.1553 27.2301 25.9191 26.9593C25.857 26.8883 25.8111 26.8045 25.7847 26.7139C25.7582 26.6233 25.7519 26.528 25.766 26.4347V26.4347Z" fill="white"/>
</svg>
