<svg width="52" height="45" viewBox="0 0 52 45" fill="none" xmlns="http://www.w3.org/2000/svg">
<path d="M38.4983 1L51 22.3688L38.4983 43.7376H13.5017L1 22.3688L13.5017 1H38.4983Z" stroke="white" stroke-width="2" stroke-miterlimit="10" stroke-linecap="round" stroke-linejoin="round"/>
<path d="M23.9484 22.7071C23.8868 23.3621 23.9113 24.0225 24.0213 24.6712C24.0822 25.1116 24.2785 25.5222 24.5831 25.8462C24.7196 25.9757 24.8806 26.0767 25.0566 26.1433C25.2325 26.21 25.42 26.2409 25.608 26.2343C25.8437 26.222 26.0736 26.1575 26.2813 26.0456C26.6091 25.8536 26.8834 25.5823 27.079 25.2565C27.2937 24.9192 27.4597 24.5532 27.5722 24.1694L28.1082 17.934C27.8698 17.8842 27.627 17.859 27.3835 17.859C26.7284 17.8314 26.0846 18.0357 25.5652 18.4358C25.0632 18.8748 24.6922 19.4439 24.4931 20.0804C24.2138 20.9366 24.0304 21.8211 23.9463 22.7178L23.9484 22.7071ZM28.0589 27.4093C27.8416 27.6939 27.5919 27.9522 27.3148 28.1791C26.4899 28.8382 25.4585 29.1845 24.403 29.1569C23.5377 29.1724 22.6928 28.8926 22.0079 28.3635C21.2906 27.7804 20.7623 26.9976 20.4898 26.1142C20.1481 25.0129 20.0421 23.852 20.1789 22.7071C20.3337 21.2637 20.7577 19.8622 21.429 18.5752C21.9927 17.4869 22.817 16.5551 23.8283 15.8627C24.7906 15.2224 25.9232 14.8863 27.079 14.8978C28.2226 14.8978 29.116 15.0579 29.7593 15.3781C30.4012 15.7005 31.0247 16.0584 31.6269 16.4503L30.9107 24.8684C30.8616 25.1342 30.8616 25.4067 30.9107 25.6725C30.9534 25.8636 31.0475 26.0394 31.183 26.1807C31.3053 26.3074 31.4582 26.4004 31.6269 26.4509C31.9737 26.557 32.3448 26.5541 32.6899 26.4425C33.035 26.3309 33.3376 26.116 33.5567 25.8269C34.0121 25.2621 34.3464 24.6096 34.5387 23.91C34.8056 23.0247 34.9499 22.107 34.9676 21.1825C35.059 19.3042 34.8217 17.646 34.2557 16.208C33.7307 14.8219 32.7737 13.6416 31.5261 12.8415C30.2767 12.0282 28.6636 11.6222 26.6866 11.6236C24.784 11.6236 23.1522 12.1075 21.7913 13.0753C20.3985 14.0731 19.2966 15.4237 18.5986 16.9884C17.8197 18.7241 17.3829 20.5937 17.3121 22.4948C17.2167 23.9743 17.3534 25.4596 17.7173 26.8969C18.0082 28.0344 18.5587 29.089 19.3255 29.9781C20.0691 30.8008 21.0067 31.4244 22.0529 31.7921C23.2551 32.2075 24.5207 32.4092 25.7925 32.3882C26.6375 32.3854 27.4801 32.2978 28.3076 32.1266C29.0498 31.9878 29.7781 31.7833 30.484 31.5155L31.0372 34.0886C30.273 34.5548 29.4301 34.8774 28.5499 35.0406C27.6248 35.2415 26.6812 35.3457 25.7346 35.3515C23.1744 35.3515 21.0016 34.8776 19.2161 33.9299C17.4397 32.983 16.0262 31.4752 15.1957 29.6415C14.3052 27.7388 13.9121 25.3566 14.0164 22.4948C14.0775 20.6628 14.4337 18.8527 15.0714 17.1343C15.6565 15.5546 16.5345 14.0997 17.6594 12.8458C18.7596 11.6306 20.107 10.6649 21.6112 10.0133C23.2314 9.32126 24.9786 8.97649 26.7402 9.00124C29.2275 9.00124 31.3252 9.50942 33.0335 10.5258C34.7164 11.5081 36.0563 12.9843 36.8716 14.7542C37.7121 16.5582 38.0831 18.6416 37.9845 21.0046C37.9472 22.0203 37.7961 23.0287 37.5342 24.0108C37.2918 24.949 36.8978 25.8413 36.3677 26.6524C35.8608 27.4203 35.1835 28.0609 34.3886 28.5243C33.5053 29.0062 32.5105 29.2466 31.5046 29.2212C30.9581 29.2375 30.414 29.1411 29.9064 28.9378C29.3987 28.7345 28.9384 28.4288 28.5542 28.0397C28.3645 27.8454 28.1982 27.6295 28.0589 27.3965V27.4093Z" fill="white"/>
</svg>
