<svg width="52" height="45" viewBox="0 0 52 45" fill="none" xmlns="http://www.w3.org/2000/svg">
<path d="M38.4983 1L51 22.3688L38.4983 43.7376H13.5017L1 22.3688L13.5017 1H38.4983Z" stroke="white" stroke-width="2" stroke-miterlimit="10" stroke-linecap="round" stroke-linejoin="round"/>
<path d="M37.3156 26.9592L32.0655 24.7092C31.8412 24.6137 31.592 24.5935 31.3552 24.6518C31.1185 24.7101 30.9072 24.8438 30.7529 25.0326L28.4279 27.8733C24.779 26.1529 21.8424 23.2164 20.122 19.5674L22.9626 17.2424C23.1519 17.0885 23.2858 16.8771 23.3441 16.6403C23.4025 16.4034 23.3821 16.154 23.2861 15.9298L21.0361 10.6797C20.9306 10.4381 20.7442 10.2407 20.5089 10.1218C20.2735 10.0028 20.0041 9.96973 19.747 10.0282L14.8719 11.1532C14.624 11.2104 14.4028 11.35 14.2445 11.5491C14.0861 11.7483 13.9999 11.9952 14 12.2496C14 24.2733 23.7455 34 35.7504 34C36.0048 34.0002 36.2519 33.9141 36.4512 33.7557C36.6504 33.5974 36.79 33.3761 36.8473 33.1281L37.9723 28.253C38.0303 27.9947 37.9966 27.7241 37.8767 27.488C37.7568 27.2519 37.5584 27.0649 37.3156 26.9592Z" fill="white"/>
</svg>
