<svg width="50" height="43" viewBox="0 0 50 43" fill="none" xmlns="http://www.w3.org/2000/svg">
<path d="M37.4983 0L50 21.3688L37.4983 42.7376H12.5017L0 21.3688L12.5017 0H37.4983Z" fill="#663399"/>
<g clip-path="url(#clip0_28_101)">
<rect width="34" height="25.0047" transform="translate(8 8)" fill="#663399"/>
<path d="M15.1248 27.1001C15.1248 27.5649 14.7485 27.9385 14.2865 27.9385C13.8216 27.9385 13.4481 27.5622 13.4481 27.1001C13.4481 23.9098 14.7402 21.0212 16.832 18.9294C18.9238 16.8376 21.8125 15.5454 25.0028 15.5454C28.193 15.5454 31.0817 16.8376 33.1735 18.9294C35.2653 21.0212 36.5575 23.9098 36.5575 27.1001C36.5575 27.5649 36.1812 27.9385 35.7191 27.9385C35.257 27.9385 34.8807 27.5622 34.8807 27.1001C34.8807 24.3719 33.7767 21.9038 31.9893 20.1164C30.2018 18.3289 27.7337 17.2249 25.0055 17.2249C22.2773 17.2249 19.8092 18.3317 18.0218 20.1164C16.2288 21.9038 15.1248 24.3747 15.1248 27.1001ZM32.2992 33.0047C32.2549 31.6821 32.3296 31.6628 30.7829 31.0845C29.8753 30.7441 28.716 30.3125 27.8831 29.7951C26.9036 30.7026 26.2756 31.7402 26.2534 33.0047H32.2992ZM17.7008 33.0047C17.7451 31.6821 17.6704 31.6628 19.2171 31.0845C20.1247 30.7441 21.284 30.3125 22.1169 29.7951C23.0964 30.7026 23.7244 31.7402 23.7466 33.0047H17.7008ZM23.0299 28.5472C23.0715 28.2124 22.0809 26.9424 21.901 26.3309C21.5137 25.7166 21.3753 24.7371 21.7987 24.0869C21.9674 23.8296 21.8955 23.3675 21.8955 23.0133C21.8955 19.4744 28.0962 19.4717 28.0962 23.0133C28.0962 23.4616 27.9938 23.8019 28.2373 24.1533C28.644 24.7427 28.4338 25.7858 28.0907 26.3337C27.8721 26.9728 26.8345 28.1847 26.9064 28.55C26.9673 30.3651 23.0161 30.3042 23.0299 28.5472ZM42 17.7617L40.5778 19.599L41.5877 21.6908L39.4019 20.9049L37.7251 22.5125L37.797 20.1911L35.7495 19.0926L37.9797 18.4424L38.3919 16.1541L39.6979 18.0744L42 17.7617ZM34.7783 10.5373L34.4657 12.8394L36.3859 14.1481L34.1004 14.5632L33.4502 16.7933L32.3517 14.7458L30.0303 14.8177L31.6379 13.141L30.8493 10.9523L32.9411 11.9622L34.7783 10.5373ZM8 17.7617L10.3021 18.0744L11.6108 16.1541L12.0259 18.4396L14.256 19.0898L12.2085 20.1883L12.2804 22.5098L10.6009 20.9022L8.41227 21.688L9.4222 19.5962L8 17.7617ZM15.2217 10.5373L17.0589 11.9595L19.1507 10.9495L18.3677 13.1354L19.9753 14.8122L17.6538 14.7402L16.5553 16.7878L15.9051 14.5576L13.6169 14.1453L15.5371 12.8366L15.2217 10.5373ZM25 8L25.8799 10.1499L28.1958 10.3215L26.425 11.8239L26.9784 14.0817L25.0028 12.8587L23.0272 14.0817L23.5806 11.8239L21.8042 10.3215L24.1201 10.1499L25 8Z" fill="white"/>
</g>
<defs>
<clipPath id="clip0_28_101">
<rect width="34" height="25.0047" fill="white" transform="translate(8 8)"/>
</clipPath>
</defs>
</svg>
