<svg width="52" height="45" viewBox="0 0 52 45" fill="none" xmlns="http://www.w3.org/2000/svg">
<path d="M38.4983 1L51 22.3688L38.4983 43.7376H13.5017L1 22.3688L13.5017 1H38.4983Z" stroke="white" stroke-width="2" stroke-miterlimit="10" stroke-linecap="round" stroke-linejoin="round"/>
<path d="M22.2022 25.2802L21.7721 31.3297C22.3874 31.3297 22.6539 31.0653 22.9736 30.7479L25.8585 27.9908L31.8365 32.3686C32.9328 32.9796 33.7053 32.6579 34.001 31.36L37.925 12.9732L37.9261 12.9722C38.2738 11.3514 37.3399 10.7177 36.2717 11.1153L13.2071 19.9457C11.6329 20.5568 11.6568 21.4343 12.9395 21.8318L18.8362 23.666L32.5331 15.0955C33.1777 14.6687 33.7638 14.9049 33.2817 15.3317L22.2022 25.2802Z" fill="white"/>
</svg>
