<svg width="50" height="43" viewBox="0 0 50 43" fill="none" xmlns="http://www.w3.org/2000/svg">
<g clip-path="url(#clip0_213_20)">
<path d="M37.4983 0L50 21.3688L37.4983 42.7376H12.5017L0 21.3688L12.5017 0H37.4983Z" fill="#1C1C1C"/>
<path d="M40 6H10V36H40V6Z" fill="#1C1C1C"/>
<path fill-rule="evenodd" clip-rule="evenodd" d="M33.75 14.75H16.25C15.5596 14.75 15 15.3097 15 16V27.25C15 27.9404 15.5596 28.5 16.25 28.5H33.75C34.4404 28.5 35 27.9404 35 27.25V16C35 15.3097 34.4404 14.75 33.75 14.75ZM16.25 13.5C14.8693 13.5 13.75 14.6193 13.75 16V27.25C13.75 28.6308 14.8693 29.75 16.25 29.75H33.75C35.1307 29.75 36.25 28.6308 36.25 27.25V16C36.25 14.6193 35.1307 13.5 33.75 13.5H16.25Z" fill="white"/>
<path fill-rule="evenodd" clip-rule="evenodd" d="M33.75 14.75H16.25C15.5596 14.75 15 15.3096 15 16V17.7889C15 18.409 15.4467 18.9129 16.0319 18.991C18.409 19.3078 22.2344 19.75 25 19.75C27.7656 19.75 31.591 19.3078 33.9681 18.991C34.5532 18.9129 35 18.409 35 17.7889V16C35 15.3096 34.4404 14.75 33.75 14.75ZM16.25 13.5C14.8693 13.5 13.75 14.6193 13.75 16V17.7889C13.75 19.0206 14.6458 20.0672 15.8667 20.23C18.244 20.5469 22.1429 21 25 21C27.8571 21 31.756 20.5469 34.1333 20.23C35.3543 20.0672 36.25 19.0206 36.25 17.7889V16C36.25 14.6193 35.1307 13.5 33.75 13.5H16.25Z" fill="white"/>
<path fill-rule="evenodd" clip-rule="evenodd" d="M22.5 11.625C21.4645 11.625 20.625 12.4645 20.625 13.5H19.375C19.375 11.7741 20.7741 10.375 22.5 10.375H27.5C29.2259 10.375 30.625 11.7741 30.625 13.5H29.375C29.375 12.4645 28.5355 11.625 27.5 11.625H22.5Z" fill="white"/>
</g>
<defs>
<clipPath id="clip0_213_20">
<rect width="50" height="43" fill="white"/>
</clipPath>
</defs>
</svg>
